# xmcd
#
# Track frame offsets:
#	150
#	30161
#	43315
#	66728
#	81394
#	107207
#	123020
#
# Disc length: 1958 seconds
#
# Revision: 0
# Processed by: cddbd v1.5.2PL0 Copyright (c) Steve Scherf et al.
# Submitted via: audiograbber 1.83.01
#
DISCID=5d07a407
DTITLE=Nathan Ignacio - A Step Behind
DYEAR=2018
DGENRE=Indie
TTITLE0=She never knew
TTITLE1=I'm not broken
TTITLE2=Weathered
TTITLE3=Blame it on the heartache
TTITLE4=Vincent black lighting
TTITLE5=A step behind
TTITLE6=Broken hands
EXTD=
EXTT0=
EXTT1=
EXTT2=
EXTT3=
EXTT4=
EXTT5=
EXTT6=
PLAYORDER=
